HIERARCHY
ROOT root
{
	OFFSET	0	13.1	24.9
	CHANNELS 6  Xposition Yposition Zposition Xrotation Yrotation Zrotation
	JOINT spine_1
	{
		OFFSET	0	9.99999	0
		CHANNELS 3  Xrotation Yrotation Zrotation
		JOINT spine_2
		{
			OFFSET	0	112	-10
			CHANNELS 3  Xrotation Yrotation Zrotation
			JOINT spine_3
			{
				OFFSET	0	206.5	19.3
				CHANNELS 3  Xrotation Yrotation Zrotation
				JOINT spine_4
				{
					OFFSET	0	110.4	14.6
					CHANNELS 3  Xrotation Yrotation Zrotation
					JOINT neck_1
					{
						OFFSET	0	71.8	-50.3
						CHANNELS 3  Xrotation Yrotation Zrotation
						JOINT neck_2
						{
							OFFSET	0	86.2	-25.8
							CHANNELS 3  Xrotation Yrotation Zrotation
							JOINT head_ee
							{
								OFFSET	0	179.8	-8.7
								CHANNELS 3  Xrotation Yrotation Zrotation
								End Site
								{
									OFFSET	1	0	0
								}
							}
						}
					}
					JOINT left_clavicle
					{
						OFFSET	-43.2	22.4	-70.8
						CHANNELS 3  Xrotation Yrotation Zrotation
						JOINT left_shoulder
						{
							OFFSET	-93.9	-5.79999	48.7
							CHANNELS 3  Xrotation Yrotation Zrotation
							JOINT left_elbow
							{
								OFFSET	-291.4	-30.8	15.2
								CHANNELS 3  Xrotation Yrotation Zrotation
								JOINT left_lowarm_twist
								{
									OFFSET	-110.7	-3.89999	13.6
									CHANNELS 3  Xrotation Yrotation Zrotation
									JOINT left_hand
									{
										OFFSET	-110.7	-3.89999	13.6
										CHANNELS 3  Xrotation Yrotation Zrotation
										JOINT left_ee
										{
											OFFSET	-80.8	-5.10001	12.1
											CHANNELS 3  Xrotation Yrotation Zrotation
											End Site
											{
												OFFSET	1	0	0
											}
										}
									}
								}
							}
						}
					}
					JOINT right_clavicle
					{
						OFFSET	43.2	22.4	-70.8
						CHANNELS 3  Xrotation Yrotation Zrotation
						JOINT right_shoulder
						{
							OFFSET	93.9	-5.79999	48.7
							CHANNELS 3  Xrotation Yrotation Zrotation
							JOINT right_elbow
							{
								OFFSET	291.4	-30.8	15.2
								CHANNELS 3  Xrotation Yrotation Zrotation
								JOINT right_lowarm_twist
								{
									OFFSET	110.7	-3.89999	13.6
									CHANNELS 3  Xrotation Yrotation Zrotation
									JOINT right_hand
									{
										OFFSET	110.7	-3.89999	13.6
										CHANNELS 3  Xrotation Yrotation Zrotation
										JOINT right_ee
										{
											OFFSET	80.8	-5.10001	12.1
											CHANNELS 3  Xrotation Yrotation Zrotation
											End Site
											{
												OFFSET	1	0	0
											}
										}
									}
								}
							}
						}
					}
				}
			}
		}
	}
	JOINT left_hip
	{
		OFFSET	-82.8	-127.5	0.300001
		CHANNELS 3  Xrotation Yrotation Zrotation
		JOINT left_knee
		{
			OFFSET	-28.2	-396.7	2.2
			CHANNELS 3  Xrotation Yrotation Zrotation
			JOINT left_ankle
			{
				OFFSET	-11.7	-411.3	35.4
				CHANNELS 3  Xrotation Yrotation Zrotation
				JOINT left_toes
				{
					OFFSET	0	-60	-88.6
					CHANNELS 3  Xrotation Yrotation Zrotation
					JOINT left_foot_ee
					{
						OFFSET	-22.5	-16.5	-42.2
						CHANNELS 3  Xrotation Yrotation Zrotation
						End Site
						{
							OFFSET	1	0	0
						}
					}
				}
			}
		}
	}
	JOINT right_hip
	{
		OFFSET	82.8	-127.5	0.300001
		CHANNELS 3  Xrotation Yrotation Zrotation
		JOINT right_knee
		{
			OFFSET	28.2	-396.7	2.2
			CHANNELS 3  Xrotation Yrotation Zrotation
			JOINT right_ankle
			{
				OFFSET	11.7	-411.3	35.4
				CHANNELS 3  Xrotation Yrotation Zrotation
				JOINT right_toes
				{
					OFFSET	0	-60	-88.6
					CHANNELS 3  Xrotation Yrotation Zrotation
					JOINT right_foot_ee
					{
						OFFSET	22.5	-16.5	-42.2
						CHANNELS 3  Xrotation Yrotation Zrotation
						End Site
						{
							OFFSET	1	0	0
						}
					}
				}
			}
		}
	}
}
MOTION
Frames: 12
Frame Time: 0.02
2103.94 732.241 -1535.3 -18.652 54.5639 15.7085 5.75198 0.547575 3.16667 5.7575 0.345068 3.19506 5.77078 -0.0109251 3.2136 5.75671 0.49648 3.17507 -9.2694 18.0071 -3.99203 -9.59092 36.5364 0.604424 -0.0 0.0 -0.0 -7.90573 12.8623 -11.857 -21.5187 -8.47485 69.9067 1.54087 -37.3521 0.520867 45.2595 -0.650712 -5.59676 -0.493687 25.8426 7.43702 -0.0 0.0 -0.0 10.9346 2.97813 -21.7591 -35.4187 56.8799 -61.6869 0.792494 21.4338 -0.149988 49.6549 0.944219 6.07662 -7.47003 -28.8703 30.7875 0.0 0.0 0.0 21.4024 71.7307 -17.1051 -10.367 0.286083 1.56312 24.8345 -29.8826 -4.11721 -6.26764 0.0 0.0 -0.0 0.0 -0.0 17.8142 15.0313 -5.66446 -11.8746 -0.303964 -1.79374 15.5303 8.88699 2.25317 15.3753 -0.0 -0.0 0.0 0.0 0.0 
2104.62 727.117 -1532.61 -18.5006 54.6889 15.4659 5.70883 0.510015 3.15972 5.71433 0.308025 3.18573 5.7256 -0.0492901 3.20019 5.7116 0.456481 3.16789 -9.23314 17.9351 -4.1825 -9.54159 36.526 0.383099 -0.0 0.0 -0.0 -7.8632 12.1268 -12.0172 -21.6146 -8.75151 70.1242 1.52458 -37.0588 0.511013 46.1818 -0.709224 -5.69928 -0.38491 26.2079 8.18946 -0.0 0.0 -0.0 10.9695 2.91839 -21.8313 -35.4577 56.7792 -61.7117 0.747649 20.3228 -0.134005 50.2214 0.984707 6.13681 -7.43901 -28.7185 30.7415 0.0 0.0 0.0 21.277 72.4655 -17.1478 -10.5805 0.288983 1.59574 24.1664 -29.7554 -4.01722 -6.19539 0.0 0.0 -0.0 0.0 -0.0 17.8911 14.6014 -5.44763 -12.4284 -0.309007 -1.87856 15.2047 9.27479 2.21359 15.1268 -0.0 -0.0 0.0 0.0 0.0 
2103.59 727.913 -1530.43 -18.372 54.8633 15.2731 5.71724 0.401768 3.23554 5.72304 0.195179 3.25453 5.72799 -0.169159 3.25598 5.71336 0.346909 3.24188 -9.47597 17.377 -4.59677 -9.79147 35.7696 -0.0902489 -0.0 0.0 -0.0 -8.012 11.766 -12.3991 -22.5817 -10.2858 69.9637 1.63489 -39.0002 0.578983 46.2706 -0.714946 -5.7091 -0.371577 25.1574 7.86351 -0.0 0.0 -0.0 11.0423 3.55089 -22.0143 -35.1515 56.7259 -61.9168 0.76962 20.8692 -0.141734 52.3203 1.13988 6.35627 -7.63949 -29.758 30.9591 0.0 0.0 0.0 20.9045 73.0924 -16.8159 -10.4873 0.287732 1.5815 23.5256 -31.1842 -4.00139 -5.77541 0.0 0.0 -0.0 0.0 -0.0 17.8734 16.4985 -5.44972 -12.8466 -0.312273 -1.94264 15.104 11.3404 2.22552 13.7983 -0.0 -0.0 0.0 0.0 0.0 
2104.87 728.493 -1527.21 -17.8189 54.3065 14.5069 5.66778 0.520058 3.27383 5.67369 0.310798 3.30024 5.68537 -0.0616449 3.31426 5.67034 0.462267 3.28247 -9.66586 17.0544 -4.73523 -9.99377 35.2656 -0.248366 -0.0 0.0 -0.0 -8.07249 11.4598 -12.6066 -22.3271 -9.38134 70.2215 1.65836 -39.4 0.593813 47.6723 -0.807254 -5.86293 -0.38261 26.0617 8.14672 -0.0 0.0 -0.0 11.0952 3.86639 -22.141 -34.8706 56.6161 -62.3121 0.753059 20.4577 -0.13589 52.5447 1.15695 6.3794 -7.73544 -30.1933 31.115 0.0 0.0 0.0 20.4542 73.6169 -16.397 -10.281 0.284879 1.54997 22.6004 -31.4586 -3.88108 -6.25005 0.0 0.0 -0.0 0.0 -0.0 17.8542 15.1837 -5.2163 -13.1582 -0.314401 -1.9904 14.1756 9.63593 2.07713 13.4995 -0.0 -0.0 0.0 0.0 0.0 
2103.18 726.81 -1524.54 -17.1556 54.3976 13.7486 5.65139 0.407115 3.28779 5.65738 0.197196 3.30701 5.66253 -0.176799 3.30816 5.64743 0.347592 3.29461 -9.98673 16.2376 -3.33404 -10.3366 32.8154 0.9948 -0.0 0.0 -0.0 -8.16558 10.8986 -12.9564 -21.8637 -9.17793 70.3496 1.59935 -38.3859 0.556764 47.9956 -0.829083 -5.8981 -0.740515 25.041 5.72531 -0.0 0.0 -0.0 11.1579 5.34333 -22.3275 -35.0732 56.5955 -62.2666 0.760549 20.644 -0.138519 54.77 1.33106 6.60509 -7.52907 -29.5388 30.473 0.0 0.0 0.0 16.7277 74.0841 -13.5472 -10.6174 0.289473 1.60139 24.0912 -31.7598 -4.1149 -5.47325 0.0 0.0 -0.0 0.0 -0.0 17.6505 16.1371 -4.85866 -12.3576 -0.308408 -1.86771 13.9239 10.3685 2.05076 15.1082 -0.0 -0.0 0.0 0.0 0.0 
2101.44 725.472 -1524.02 -16.8823 54.599 13.4556 5.62592 0.455596 3.39425 5.63229 0.238817 3.41633 5.63993 -0.149059 3.42142 5.62381 0.39284 3.40208 -8.91641 16.3729 -3.25124 -9.12412 32.9398 0.758623 -0.0 0.0 -0.0 -8.13014 10.4161 -13.0462 -22.2765 -11.5276 69.8248 1.56406 -37.7654 0.535 47.648 -0.805622 -5.86028 -1.17151 23.0421 2.42416 -0.0 0.0 -0.0 11.1457 4.48214 -22.2733 -35.7764 56.5802 -62.0434 0.781066 21.1522 -0.145838 55.6082 1.39891 6.68835 -7.45889 -29.3222 30.2438 0.0 0.0 0.0 15.6941 74.3498 -12.6253 -9.88898 0.279146 1.49009 24.4836 -31.3648 -4.14876 -5.79593 0.0 0.0 -0.0 0.0 -0.0 17.0975 16.838 -4.69743 -12.5601 -0.310086 -1.89874 14.0581 12.1344 2.09117 13.3301 -0.0 -0.0 0.0 0.0 0.0 
2101.03 722.341 -1521.14 -16.5116 54.0901 12.5421 5.6706 0.43884 3.52503 5.67749 0.213788 3.54578 5.68352 -0.185932 3.54734 5.66616 0.376281 3.53225 -9.65859 16.5468 -2.75778 -9.9819 32.9916 1.53534 -0.0 0.0 -0.0 -8.40248 10.2398 -13.6056 -22.7698 -12.4106 69.6696 1.67155 -39.6227 0.602206 49.477 -0.931622 -6.05764 -1.11881 22.7665 2.60832 -0.0 0.0 -0.0 11.1619 4.81667 -22.3198 -35.2431 55.9652 -62.4991 0.751453 20.4176 -0.135329 57.7693 1.5794 6.89837 -7.21061 -28.266 29.7071 0.0 0.0 0.0 16.7291 74.4918 -14.0566 -12.6499 0.310795 1.9125 26.2836 -31.7197 -4.42187 -6.38281 0.0 0.0 -0.0 0.0 -0.0 17.4316 17.4761 -4.07355 -14.2458 -0.319796 -2.15719 15.3363 13.0686 2.28185 13.4011 -0.0 -0.0 0.0 0.0 0.0 
2097.11 720.939 -1519.07 -15.8751 54.0375 11.3761 5.61417 0.351549 3.70205 5.62179 0.115432 3.71689 5.62148 -0.307146 3.70599 5.60243 0.281587 3.70802 -8.89342 16.2096 -2.55663 -9.10078 32.1593 1.39072 -0.0 0.0 -0.0 -8.24987 9.97117 -13.4097 -22.2247 -12.8761 69.6113 1.62749 -38.8732 0.574333 50.5017 -1.00496 -6.16643 -1.41669 22.3447 0.698674 -0.0 0.0 -0.0 11.1453 5.02519 -22.2904 -36.2949 55.9628 -62.3451 0.81133 21.8955 -0.156941 57.2897 1.53866 6.85235 -6.96585 -26.6994 29.639 0.0 0.0 0.0 20.0846 75.1202 -17.221 -15.6573 0.322074 2.37373 28.8631 -31.547 -4.75774 -8.91941 0.0 0.0 -0.0 0.0 -0.0 17.4039 18.8582 -3.53634 -15.7896 -0.322014 -2.39404 14.8902 14.5101 2.24183 13.8417 -0.0 -0.0 0.0 0.0 0.0 
2097.85 720.833 -1517.32 -16.1428 54.8167 11.2559 5.61575 0.275538 3.73752 5.62352 0.0373219 3.74746 5.61805 -0.388616 3.72747 5.59872 0.20452 3.74207 -9.29569 15.9905 -1.50689 -9.55099 31.0728 2.48402 -0.0 0.0 -0.0 -8.29796 9.44062 -13.6692 -22.0372 -13.6289 69.3952 1.69831 -40.0703 0.619353 51.7788 -1.09907 -6.30018 -1.60926 21.5951 -0.764468 -0.0 0.0 -0.0 10.9127 4.84353 -21.7799 -35.5455 55.8446 -63.2597 0.827006 22.2775 -0.162836 57.22 1.53277 6.84563 -6.71657 -25.2297 29.3689 0.0 0.0 0.0 24.069 76.5647 -21.4528 -17.9625 0.314325 2.72732 29.2153 -32.074 -4.83795 -10.524 0.0 0.0 -0.0 0.0 -0.0 17.7372 19.9553 -3.1199 -16.5821 -0.320674 -2.51562 15.6927 15.0376 2.36277 14.6516 -0.0 -0.0 0.0 0.0 0.0 
2098.68 721.97 -1514.61 -15.3432 53.9441 10.2409 5.55758 0.332574 3.80543 5.56563 0.0899306 3.81886 5.56352 -0.347992 3.80406 5.54343 0.256706 3.81129 -9.8242 15.8284 -1.77828 -10.1366 30.9977 2.33633 -0.0 0.0 -0.0 -8.19839 9.06098 -13.6032 -21.7647 -14.2241 69.2499 1.68164 -39.7922 0.608654 51.917 -1.10944 -6.31454 -1.77028 21.0617 -1.9577 -0.0 0.0 -0.0 11.0924 5.93134 -22.2004 -35.5284 55.9514 -63.7354 0.797926 21.5673 -0.151979 58.0385 1.60244 6.92406 -6.45564 -24.3835 28.3934 0.0 0.0 0.0 22.0663 75.5879 -19.7923 -19.7723 0.298278 3.00453 34.6913 -32.9464 -5.57373 -10.905 0.0 0.0 -0.0 0.0 -0.0 18.7446 20.0171 -3.1584 -18.9906 -0.306284 -2.88485 14.3985 14.4798 2.17217 14.9852 -0.0 -0.0 0.0 0.0 0.0 
2097.04 718.811 -1511.18 -14.883 53.7262 9.58745 5.52528 0.325665 3.872 5.53361 0.0788087 3.88486 5.53065 -0.368866 3.86813 5.50986 0.24619 3.87786 -10.5562 14.981 -1.91211 -10.9103 29.5445 2.17936 -0.0 0.0 -0.0 -8.11334 8.53843 -13.6069 -21.4405 -13.7417 68.9614 1.69048 -39.9399 0.614317 51.0686 -1.04637 -6.22607 -1.96029 18.6469 -4.24788 -0.0 0.0 -0.0 10.8655 4.0781 -21.6534 -38.0724 55.8242 -61.6877 0.829066 22.3275 -0.163618 55.893 1.42224 6.71641 -6.072 -21.7946 28.0413 0.0 0.0 0.0 24.8067 78.334 -23.2792 -20.7265 0.286294 3.15045 31.2072 -31.7573 -5.07033 -12.0926 0.0 0.0 -0.0 0.0 -0.0 19.3809 22.6123 -3.50587 -20.9104 -0.283705 -3.17855 16.6469 10.9304 2.42969 16.2412 -0.0 -0.0 0.0 0.0 0.0 
2099.65 717.04 -1504.91 -14.7853 54.1505 9.72968 5.56138 0.350787 3.87269 5.56972 0.103837 3.88713 5.56836 -0.341657 3.8735 5.54753 0.273905 3.87887 -11.1035 14.6128 -1.59944 -11.4928 28.6829 2.52471 -0.0 0.0 -0.0 -7.97439 7.39725 -13.6932 -20.4785 -13.1916 68.5693 1.71621 -40.3665 0.630914 50.0739 -0.974103 -6.12117 -1.93196 19.752 -3.54189 -0.0 0.0 -0.0 10.8291 3.77174 -21.5642 -39.2867 55.7905 -60.3691 0.815464 21.9964 -0.158486 55.9492 1.42686 6.72193 -5.76703 -20.153 27.2987 0.0 0.0 0.0 38.9409 82.3049 -37.929 -20.7337 0.286195 3.15155 30.0842 -32.9674 -5.01169 -12.1827 0.0 0.0 -0.0 0.0 -0.0 21.1616 21.9746 -4.07709 -23.0536 -0.246892 -3.50533 16.6108 5.31838 2.35985 17.3021 -0.0 -0.0 0.0 0.0 0.0 
